<svg width="32" height="32" viewBox="0 0 32 32" fill="none" xmlns="http://www.w3.org/2000/svg">
<path d="M30 16C29.9993 16.3439 29.9104 16.6819 29.7419 16.9817C29.5734 17.2815 29.3309 17.5331 29.0375 17.7125L11.0375 28.7C10.7377 28.89 10.3914 28.994 10.0365 29.0006C9.68161 29.0072 9.33171 28.9162 9.02501 28.7375C8.71377 28.5667 8.45432 28.3152 8.27394 28.0095C8.09356 27.7037 7.99893 27.355 8.00001 27V4.99999C7.99893 4.64499 8.09356 4.29626 8.27394 3.9905C8.45432 3.68474 8.71377 3.43325 9.02501 3.26249C9.33171 3.08379 9.68161 2.99278 10.0365 2.99939C10.3914 3.006 10.7377 3.10999 11.0375 3.29999L29.0375 14.2875C29.3309 14.4669 29.5734 14.7185 29.7419 15.0183C29.9104 15.3181 29.9993 15.6561 30 16Z" fill="#F2FFF5"/>
</svg>
