<svg width="32" height="32" viewBox="0 0 24 24" fill="none" xmlns="http://www.w3.org/2000/svg">
<path d="M22.2657 9.77808C22.2424 9.67324 22.1969 9.57462 22.1322 9.4889C22.0675 9.40317 21.9851 9.33235 21.8907 9.2812L19.6594 8.0437C19.5398 7.80117 19.4052 7.56633 19.2563 7.34058L19.3032 4.79058C19.3041 4.68362 19.2829 4.57764 19.2409 4.47924C19.199 4.38085 19.1372 4.29215 19.0594 4.2187C17.9485 3.21142 16.6346 2.4538 15.2063 1.99683C15.1038 1.96484 14.9956 1.95499 14.8889 1.96792C14.7822 1.98085 14.6795 2.01626 14.5876 2.07183L12.4032 3.38433C12.1313 3.37495 11.8688 3.37495 11.5969 3.38433L9.41257 2.07183C9.32061 2.01626 9.21791 1.98085 9.11125 1.96792C9.00458 1.95499 8.89639 1.96484 8.79382 1.99683C7.36363 2.45415 6.04923 3.21529 4.9407 4.22808C4.86227 4.299 4.79993 4.3859 4.75789 4.48292C4.71585 4.57995 4.69507 4.68485 4.69695 4.79058L4.74382 7.34058C4.59382 7.56558 4.46257 7.79995 4.33132 8.0437L2.10007 9.2812C2.007 9.33288 1.92616 9.40402 1.86306 9.48976C1.79997 9.57551 1.7561 9.67385 1.73445 9.77808C1.41567 11.2422 1.41567 12.7577 1.73445 14.2218C1.75773 14.3267 1.80327 14.4253 1.86796 14.511C1.93266 14.5967 2.01501 14.6676 2.10945 14.7187L4.3407 15.9562C4.46031 16.1987 4.59494 16.4336 4.74382 16.6593L4.69695 19.2093C4.69609 19.3163 4.71729 19.4223 4.75923 19.5207C4.80117 19.6191 4.86294 19.7078 4.9407 19.7812C6.05167 20.7885 7.36552 21.5461 8.79382 22.0031C8.89639 22.0351 9.00458 22.0449 9.11125 22.032C9.21791 22.0191 9.32061 21.9836 9.41257 21.9281L11.5969 20.6156H12.4032L14.5969 21.9281C14.711 22.0031 14.8448 22.0422 14.9813 22.0406C15.0576 22.0373 15.1331 22.0247 15.2063 22.0031C16.6365 21.5458 17.9509 20.7846 19.0594 19.7718C19.1379 19.7009 19.2002 19.614 19.2423 19.517C19.2843 19.42 19.3051 19.3151 19.3032 19.2093L19.2563 16.6593C19.4063 16.4343 19.5376 16.2 19.6688 15.9562L21.9001 14.7187C21.9931 14.667 22.074 14.5959 22.1371 14.5101C22.2002 14.4244 22.244 14.3261 22.2657 14.2218C22.5845 12.7577 22.5845 11.2422 22.2657 9.77808ZM12.0001 16.125C11.1842 16.125 10.3867 15.883 9.70834 15.4298C9.02999 14.9765 8.50128 14.3323 8.18907 13.5785C7.87686 12.8248 7.79517 11.9954 7.95433 11.1952C8.1135 10.395 8.50636 9.66003 9.08326 9.08314C9.66015 8.50625 10.3952 8.11338 11.1953 7.95421C11.9955 7.79505 12.8249 7.87674 13.5786 8.18895C14.3324 8.50116 14.9766 9.02987 15.4299 9.70823C15.8831 10.3866 16.1251 11.1841 16.1251 12C16.1251 13.094 15.6905 14.1432 14.9169 14.9168C14.1433 15.6904 13.0941 16.125 12.0001 16.125Z" fill="#F2FFF5"/>
</svg>
