<svg width="18" height="18" viewBox="0 0 18 18" fill="none" xmlns="http://www.w3.org/2000/svg">
<path d="M14.4633 13.6617C14.5689 13.7683 14.6281 13.9124 14.6281 14.0625C14.6281 14.2126 14.5689 14.3566 14.4633 14.4633C14.3558 14.5672 14.212 14.6253 14.0625 14.6253C13.9129 14.6253 13.7692 14.5672 13.6617 14.4633L8.99999 9.79451L4.33827 14.4633C4.23076 14.5672 4.08705 14.6253 3.93749 14.6253C3.78793 14.6253 3.64423 14.5672 3.53671 14.4633C3.43108 14.3566 3.37183 14.2126 3.37183 14.0625C3.37183 13.9124 3.43108 13.7683 3.53671 13.6617L8.20546 8.99998L3.53671 4.33826C3.44701 4.22897 3.40117 4.09022 3.40811 3.949C3.41504 3.80779 3.47426 3.6742 3.57423 3.57422C3.67421 3.47425 3.8078 3.41503 3.94901 3.4081C4.09023 3.40116 4.22898 3.447 4.33827 3.5367L8.99999 8.20545L13.6617 3.5367C13.771 3.447 13.9097 3.40116 14.051 3.4081C14.1922 3.41503 14.3258 3.47425 14.4257 3.57422C14.5257 3.6742 14.5849 3.80779 14.5919 3.949C14.5988 4.09022 14.553 4.22897 14.4633 4.33826L9.79452 8.99998L14.4633 13.6617Z" fill="#FFF2F2"/>
</svg>
